<svg width="70" height="56" viewBox="0 0 70 56" fill="none" xmlns="http://www.w3.org/2000/svg">
<path d="M47.353 7V30.0588H42.7441V11.4499C38.9732 10.6409 28.0795 9.83179 28.0795 18.3271C28.0795 25.1234 35.6213 26.0134 39.3922 25.6089V30.0588H33.5264C30.1744 29.924 23.4706 27.3889 23.4706 18.3271C23.4706 9.26543 30.1744 7 33.5264 7H47.353Z" fill="#2C0548"/>
<path d="M11.7292 45.2291C11.7292 45.5282 11.954 45.7492 12.2581 45.7492C12.5621 45.7492 12.7869 45.5282 12.7869 45.2291V42.4985C12.7869 40.691 11.3194 39.2477 9.4817 39.2477C7.64402 39.2477 6.17651 40.691 6.17651 42.4985C6.17651 44.3059 7.64402 45.7492 9.4817 45.7492C10.3675 45.7492 11.1343 45.4372 11.7292 44.878V45.2291ZM9.4817 44.709C8.25217 44.709 7.23417 43.7077 7.23417 42.4985C7.23417 41.2892 8.25217 40.2879 9.4817 40.2879C10.7112 40.2879 11.7292 41.2892 11.7292 42.4985C11.7292 43.7077 10.7112 44.709 9.4817 44.709Z" fill="#2C0548"/>
<path d="M15.3035 44.878C15.8984 45.4372 16.6652 45.7492 17.551 45.7492C19.3887 45.7492 20.8562 44.3059 20.8562 42.4985C20.8562 40.691 19.3887 39.2477 17.551 39.2477C16.6652 39.2477 15.8984 39.5598 15.3035 40.1189V39.7678C15.3035 39.4687 15.0787 39.2477 14.7746 39.2477C14.4706 39.2477 14.2458 39.4687 14.2458 39.7678V48.4799C14.2458 48.7789 14.4706 49 14.7746 49C15.0787 49 15.3035 48.7789 15.3035 48.4799V44.878ZM17.551 44.709C16.3215 44.709 15.3035 43.7077 15.3035 42.4985C15.3035 41.2892 16.3215 40.2879 17.551 40.2879C18.7805 40.2879 19.7985 41.2892 19.7985 42.4985C19.7985 43.7077 18.7805 44.709 17.551 44.709Z" fill="#2C0548"/>
<path d="M23.3728 44.878C23.9677 45.4372 24.7345 45.7492 25.6203 45.7492C27.458 45.7492 28.9255 44.3059 28.9255 42.4985C28.9255 40.691 27.458 39.2477 25.6203 39.2477C24.7345 39.2477 23.9677 39.5598 23.3728 40.1189V39.7678C23.3728 39.4687 23.148 39.2477 22.8439 39.2477C22.5399 39.2477 22.3151 39.4687 22.3151 39.7678V48.4799C22.3151 48.7789 22.5399 49 22.8439 49C23.148 49 23.3728 48.7789 23.3728 48.4799V44.878ZM25.6203 44.709C24.3908 44.709 23.3728 43.7077 23.3728 42.4985C23.3728 41.2892 24.3908 40.2879 25.6203 40.2879C26.8498 40.2879 27.8678 41.2892 27.8678 42.4985C27.8678 43.7077 26.8498 44.709 25.6203 44.709Z" fill="#2C0548"/>
<path d="M33.7557 45.7492C34.8134 45.7492 35.6727 44.904 35.6727 43.8638C35.6727 42.8235 34.8134 41.9783 33.7557 41.9783H32.3014C31.8255 41.9783 31.4421 41.6012 31.4421 41.1331C31.4421 40.665 31.8255 40.2879 32.3014 40.2879H34.3639C34.6679 40.2879 34.8927 40.0669 34.8927 39.7678C34.8927 39.4687 34.6679 39.2477 34.3639 39.2477H32.3014C31.2438 39.2477 30.3844 40.0929 30.3844 41.1331C30.3844 42.1734 31.2438 43.0186 32.3014 43.0186H33.7557C34.2316 43.0186 34.615 43.3957 34.615 43.8638C34.615 44.3319 34.2316 44.709 33.7557 44.709H30.9132C30.6092 44.709 30.3844 44.93 30.3844 45.2291C30.3844 45.5282 30.6092 45.7492 30.9132 45.7492H33.7557Z" fill="#2C0548"/>
<path d="M38.1815 40.2879H39.6358C39.9399 40.2879 40.1647 40.0669 40.1647 39.7678C40.1647 39.4687 39.9399 39.2477 39.6358 39.2477H38.1815V37.1672C38.1815 36.8681 37.9568 36.6471 37.6527 36.6471C37.3486 36.6471 37.1239 36.8681 37.1239 37.1672V43.7988C37.1239 44.878 38.0097 45.7492 39.107 45.7492C39.649 45.7492 40.1514 45.5282 40.5084 45.1771C40.7199 44.969 40.7199 44.644 40.5084 44.4359C40.2969 44.2409 39.9663 44.2409 39.768 44.4359C39.5829 44.618 39.3582 44.709 39.107 44.709C38.5914 44.709 38.1815 44.3059 38.1815 43.7988V40.2879Z" fill="#2C0548"/>
<path d="M44.8962 45.7492C46.7339 45.7492 48.2014 44.3059 48.2014 42.4985C48.2014 40.691 46.7339 39.2477 44.8962 39.2477C43.0585 39.2477 41.591 40.691 41.591 42.4985C41.591 44.3059 43.0585 45.7492 44.8962 45.7492ZM44.8962 44.709C43.6667 44.709 42.6487 43.7077 42.6487 42.4985C42.6487 41.2892 43.6667 40.2879 44.8962 40.2879C46.1258 40.2879 47.1438 41.2892 47.1438 42.4985C47.1438 43.7077 46.1258 44.709 44.8962 44.709Z" fill="#2C0548"/>
<path d="M54.9548 45.7492C54.9548 46.9585 53.9368 47.9598 52.7073 47.9598C52.0859 47.9598 51.5307 47.7127 51.1208 47.3096C50.9093 47.1146 50.5788 47.1146 50.3672 47.3096C50.1689 47.5176 50.1689 47.8427 50.3672 48.0508C50.9622 48.6359 51.7951 49 52.7073 49C54.545 49 56.0125 47.5567 56.0125 45.7492V39.7678C56.0125 39.4687 55.7877 39.2477 55.4837 39.2477C55.1796 39.2477 54.9548 39.4687 54.9548 39.7678V40.1189C54.3599 39.5598 53.5931 39.2477 52.7073 39.2477C50.8696 39.2477 49.4021 40.691 49.4021 42.4985C49.4021 44.3059 50.8696 45.7492 52.7073 45.7492C53.5931 45.7492 54.3599 45.4372 54.9548 44.878V45.7492ZM52.7073 44.709C51.4778 44.709 50.4598 43.7077 50.4598 42.4985C50.4598 41.2892 51.4778 40.2879 52.7073 40.2879C53.9368 40.2879 54.9548 41.2892 54.9548 42.4985C54.9548 43.7077 53.9368 44.709 52.7073 44.709Z" fill="#2C0548"/>
<path d="M60.5184 45.7492C62.3561 45.7492 63.8236 44.3059 63.8236 42.4985C63.8236 40.691 62.3561 39.2477 60.5184 39.2477C58.6807 39.2477 57.2132 40.691 57.2132 42.4985C57.2132 44.3059 58.6807 45.7492 60.5184 45.7492ZM60.5184 44.709C59.2889 44.709 58.2709 43.7077 58.2709 42.4985C58.2709 41.2892 59.2889 40.2879 60.5184 40.2879C61.7479 40.2879 62.7659 41.2892 62.7659 42.4985C62.7659 43.7077 61.7479 44.709 60.5184 44.709Z" fill="#2C0548"/>
</svg>
