<svg width="32" height="32" viewBox="0 0 32 32" fill="none" xmlns="http://www.w3.org/2000/svg">
<g clip-path="url(#clip0)">
<path d="M-16.0427 0H48.1279V32.0853H-16.0427V0Z" fill="#012169"/>
<path d="M-16.0427 0V3.58453L40.9526 32.0853H48.1279V28.5008L-8.86739 0H-16.0427ZM48.1279 0V3.58453L-8.86739 32.0853H-16.0427V28.5008L40.9526 0H48.1279Z" fill="white"/>
<path d="M10.6971 0V32.0853H21.3881V0H10.6971ZM-16.0427 10.6972V21.3881H48.1279V10.6972H-16.0427Z" fill="white"/>
<path d="M-16.0427 12.8341V19.2512H48.1279V12.8341H-16.0427ZM12.8341 0V32.0853H19.2511V0H12.8341ZM-16.0427 32.0853L5.3454 21.3881H10.1331L-11.2613 32.0853H-16.0427ZM-16.0427 0L5.3454 10.6972H0.563938L-16.0427 2.39387V0ZM21.9583 10.6972L43.3465 0H48.1279L26.7398 10.6972H21.9583ZM48.1279 32.0853L26.7398 21.3881H31.5213L48.1279 29.6915V32.0853Z" fill="#C8102E"/>
</g>
<defs>
<clipPath id="clip0">
<path d="M0 8C0 3.58172 3.58172 0 8 0H24C28.4183 0 32 3.58172 32 8V24C32 28.4183 28.4183 32 24 32H8C3.58172 32 0 28.4183 0 24V8Z" fill="white"/>
</clipPath>
</defs>
</svg>
