<svg width="32" height="32" viewBox="0 0 32 32" fill="none" xmlns="http://www.w3.org/2000/svg">
<circle cx="16" cy="16" r="16" fill="#F7F5FF"/>
<path d="M17.4633 16.2213C17.4633 16.0556 17.5976 15.9213 17.7633 15.9213H19.6915C19.8453 15.9213 19.9742 15.805 19.9899 15.6519L20.2513 13.1045C20.2695 12.9276 20.1307 12.7739 19.9529 12.7739H17.7639C17.5982 12.7739 17.4639 12.6396 17.4639 12.4739V10.9239C17.4639 10.2285 17.9242 10.0664 18.2484 10.0664H19.9401C20.1058 10.0664 20.2401 9.93206 20.2401 9.76637V7.30937C20.2401 7.14413 20.1065 7.01001 19.9412 7.00937L17.4973 7C14.4532 7 13.7603 9.27874 13.7603 10.7371V12.4733C13.7603 12.6389 13.6259 12.7733 13.4603 12.7733H12.3C12.1343 12.7733 12 12.9076 12 13.0733V15.6213C12 15.787 12.1343 15.9213 12.3 15.9213H13.4603C13.6259 15.9213 13.7603 16.0556 13.7603 16.2213V24.5296C13.7603 24.6953 13.8946 24.8296 14.0603 24.8296H17.1633C17.329 24.8296 17.4633 24.6953 17.4633 24.5296V16.2213Z" fill="#2C0548"/>
</svg>
