<svg width="32" height="32" viewBox="0 0 32 32" fill="none" xmlns="http://www.w3.org/2000/svg">
<circle cx="16" cy="16" r="16" fill="#F7F5FF"/>
<path fill-rule="evenodd" clip-rule="evenodd" d="M23.2595 24.9905L23.2005 25H8.79947C8.78217 24.9976 8.76475 24.9947 8.74738 24.9919C8.72623 24.9884 8.70515 24.9849 8.68442 24.9823C7.89206 24.8802 7.22656 24.2755 7.05015 23.4956C7.03621 23.4343 7.02577 23.3721 7.01537 23.3103C7.01037 23.2805 7.00537 23.2508 7 23.2212V8.77994C7.00228 8.76553 7.00488 8.75112 7.00748 8.73671C7.01094 8.71749 7.01441 8.69827 7.01711 8.67906C7.13098 7.8708 7.72097 7.22891 8.51863 7.0472C8.57431 7.03453 8.63099 7.02511 8.68768 7.01568C8.71811 7.01062 8.74853 7.00556 8.77882 7H23.2212C23.2326 7.002 23.2439 7.00421 23.2552 7.00642C23.2771 7.0107 23.2989 7.01497 23.3215 7.0177C24.138 7.12979 24.8035 7.75575 24.9617 8.56224C24.9725 8.61971 24.9814 8.67781 24.9902 8.73561L25 8.79882V23.2012L24.9888 23.2716C24.9799 23.3284 24.9709 23.3853 24.9605 23.4425C24.8165 24.1817 24.2159 24.7947 23.4808 24.951C23.4076 24.9669 23.3336 24.9787 23.2595 24.9905ZM21.4695 11.6177V11.6212L21.0595 11.6215L20.6494 11.6218C20.3131 11.6201 20.0382 11.436 19.9361 11.1363C19.9096 11.0566 19.8936 10.9693 19.893 10.885C19.8896 10.4156 19.8903 9.94615 19.8909 9.47675L19.8913 9.19469C19.8913 8.78702 20.2146 8.46195 20.6205 8.46136C20.9979 8.46096 21.3753 8.46109 21.7527 8.46122L21.7545 8.46122L22.3214 8.46136C22.728 8.46195 23.0507 8.78584 23.0507 9.19351V10.8985C23.0507 11.2802 22.7403 11.6071 22.3592 11.6165C22.1551 11.6214 21.9511 11.6201 21.7472 11.6189C21.6546 11.6183 21.562 11.6177 21.4695 11.6177ZM12.3524 15.9445C12.3801 13.9575 14.0032 12.351 15.9997 12.3522C18.0422 12.351 19.6895 14.0383 19.6453 16.0796C19.6022 18.0602 17.9538 19.6885 15.9159 19.6448C13.9572 19.603 12.3235 17.9858 12.3524 15.9445ZM10.2606 14.2985C10.4607 14.2985 10.6045 14.4909 10.5596 14.6858C10.2401 16.0733 10.4009 17.4132 11.0969 18.6944C11.6078 19.6342 12.3394 20.3628 13.271 20.885C15.1147 21.9198 17.4021 21.8159 19.139 20.6324C19.8087 20.1764 20.3568 19.6024 20.7786 18.9109C21.2005 18.2195 21.4601 17.4714 21.5551 16.6673C21.634 15.9988 21.596 15.3409 21.4416 14.6926C21.3947 14.4957 21.539 14.2991 21.7414 14.2991H22.7513C22.917 14.2991 23.0513 14.4334 23.0513 14.5991L23.0514 17.0144C23.0515 18.7881 23.0517 20.5622 23.0513 22.3357C23.0513 22.7221 22.7215 23.0507 22.3344 23.0507C18.1101 23.0513 13.8864 23.0513 9.66203 23.0507C9.27854 23.0507 8.94697 22.7209 8.94697 22.3381C8.94657 20.5651 8.9467 18.7921 8.94683 17.0191L8.94695 14.5985C8.94696 14.4328 9.08127 14.2985 9.24695 14.2985H10.2606Z" fill="#2C0548"/>
</svg>
