<svg width="56" height="56" viewBox="0 0 56 56" fill="none" xmlns="http://www.w3.org/2000/svg">
<g filter="url(#filter0_d)">
<circle cx="28" cy="28" r="16" fill="#F7F5FF"/>
<path fill-rule="evenodd" clip-rule="evenodd" d="M35.2595 36.9905L35.2005 37H20.7995C20.7822 36.9976 20.7648 36.9947 20.7474 36.9919C20.7262 36.9884 20.7051 36.9849 20.6844 36.9823C19.8921 36.8802 19.2266 36.2755 19.0501 35.4956C19.0362 35.4343 19.0258 35.3721 19.0154 35.3103C19.0104 35.2805 19.0054 35.2508 19 35.2212V20.7799C19.0023 20.7655 19.0049 20.7511 19.0075 20.7367C19.0109 20.7175 19.0144 20.6983 19.0171 20.6791C19.131 19.8708 19.721 19.2289 20.5186 19.0472C20.5743 19.0345 20.631 19.0251 20.6877 19.0157C20.7181 19.0106 20.7485 19.0056 20.7788 19H35.2212C35.2326 19.002 35.2439 19.0042 35.2552 19.0064C35.2771 19.0107 35.2989 19.015 35.3215 19.0177C36.138 19.1298 36.8035 19.7558 36.9617 20.5622C36.9725 20.6197 36.9814 20.6778 36.9902 20.7356L37 20.7988V35.2012L36.9888 35.2716C36.9799 35.3284 36.9709 35.3853 36.9605 35.4425C36.8165 36.1817 36.2159 36.7947 35.4808 36.951C35.4076 36.9669 35.3336 36.9787 35.2595 36.9905ZM33.4695 23.6177V23.6212L33.0595 23.6215L32.6494 23.6218C32.3131 23.6201 32.0382 23.436 31.9361 23.1363C31.9096 23.0566 31.8936 22.9693 31.893 22.885C31.8896 22.4156 31.8903 21.9462 31.8909 21.4767L31.8913 21.1947C31.8913 20.787 32.2146 20.4619 32.6205 20.4614C32.9979 20.461 33.3753 20.4611 33.7527 20.4612L33.7545 20.4612L34.3214 20.4614C34.728 20.4619 35.0507 20.7858 35.0507 21.1935V22.8985C35.0507 23.2802 34.7403 23.6071 34.3592 23.6165C34.1551 23.6214 33.9511 23.6201 33.7472 23.6189C33.6546 23.6183 33.562 23.6177 33.4695 23.6177ZM24.3524 27.9445C24.3801 25.9575 26.0032 24.351 27.9997 24.3522C30.0422 24.351 31.6895 26.0383 31.6453 28.0796C31.6022 30.0602 29.9538 31.6885 27.9159 31.6448C25.9572 31.603 24.3235 29.9858 24.3524 27.9445ZM22.2606 26.2985C22.4607 26.2985 22.6045 26.4909 22.5596 26.6858C22.2401 28.0733 22.4009 29.4132 23.0969 30.6944C23.6078 31.6342 24.3394 32.3628 25.271 32.885C27.1147 33.9198 29.4021 33.8159 31.139 32.6324C31.8087 32.1764 32.3568 31.6024 32.7786 30.9109C33.2005 30.2195 33.4601 29.4714 33.5551 28.6673C33.634 27.9988 33.596 27.3409 33.4416 26.6926C33.3947 26.4957 33.539 26.2991 33.7414 26.2991H34.7513C34.917 26.2991 35.0513 26.4334 35.0513 26.5991L35.0514 29.0144C35.0515 30.7881 35.0517 32.5622 35.0513 34.3357C35.0513 34.7221 34.7215 35.0507 34.3344 35.0507C30.1101 35.0513 25.8864 35.0513 21.662 35.0507C21.2785 35.0507 20.947 34.7209 20.947 34.3381C20.9466 32.5651 20.9467 30.7921 20.9468 29.0191L20.947 26.5985C20.947 26.4328 21.0813 26.2985 21.247 26.2985H22.2606Z" fill="#2C0548"/>
</g>
<defs>
<filter id="filter0_d" x="0" y="0" width="56" height="56" filterUnits="userSpaceOnUse" color-interpolation-filters="sRGB">
<feFlood flood-opacity="0" result="BackgroundImageFix"/>
<feColorMatrix in="SourceAlpha" type="matrix" values="0 0 0 0 0 0 0 0 0 0 0 0 0 0 0 0 0 0 127 0"/>
<feOffset/>
<feGaussianBlur stdDeviation="6"/>
<feColorMatrix type="matrix" values="0 0 0 0 0.172549 0 0 0 0 0.0196078 0 0 0 0 0.282353 0 0 0 0.2 0"/>
<feBlend mode="normal" in2="BackgroundImageFix" result="effect1_dropShadow"/>
<feBlend mode="normal" in="SourceGraphic" in2="effect1_dropShadow" result="shape"/>
</filter>
</defs>
</svg>
