<svg width="32" height="32" viewBox="0 0 32 32" fill="none" xmlns="http://www.w3.org/2000/svg">
<circle cx="16" cy="16" r="16" fill="#F7F5FF"/>
<path d="M23.2 9H8.8C7.80989 9 7 9.78783 7 10.75V21.25C7 22.2122 7.80989 23 8.8 23H23.2C24.1897 23 25 22.2122 25 21.25V10.75C25 9.78783 24.1897 9 23.2 9ZM23.2 20.35C23.2 20.8471 22.7971 21.25 22.3 21.25C21.8029 21.25 21.4 20.8471 21.4 20.35V14.0872C21.4 13.8525 21.1426 13.7087 20.9427 13.8317L16.5243 16.5522C16.2028 16.7501 15.7972 16.7501 15.4757 16.5522L11.0573 13.8317C10.8574 13.7087 10.6 13.8525 10.6 14.0872V20.35C10.6 20.8471 10.1971 21.25 9.7 21.25C9.20294 21.25 8.8 20.8471 8.8 20.35V11.5957C8.8 11.1286 9.17865 10.75 9.64574 10.75C9.79913 10.75 9.94964 10.7917 10.0811 10.8707L15.4852 14.116C15.802 14.3063 16.198 14.3063 16.5148 14.116L21.9189 10.8707C22.0504 10.7917 22.2009 10.75 22.3543 10.75C22.8214 10.75 23.2 11.1286 23.2 11.5957V20.35Z" fill="#2C0548"/>
</svg>
