<svg width="32" height="32" viewBox="0 0 32 32" fill="none" xmlns="http://www.w3.org/2000/svg">
<circle cx="16" cy="16" r="16" fill="#F7F5FF"/>
<path d="M23.6502 21.0216L23.5539 20.8215C23.2842 20.1609 19.9713 19.1601 19.7017 19.1401L19.4898 19.1601C19.0854 19.2402 18.6424 19.6205 17.7756 20.4011C17.6023 20.5613 17.3711 20.6013 17.1593 20.4812C16.0229 19.8207 14.6361 18.4996 13.9427 17.6989C13.1915 16.8382 12.2863 15.417 11.8625 14.2761C11.7855 14.0559 11.8625 13.8157 12.0166 13.6556C12.9989 12.7348 13.4227 12.2944 13.4612 11.814C13.4804 11.5338 12.9026 7.99088 12.3055 7.6506L12.1322 7.5305C11.747 7.27029 11.1691 6.88997 10.5335 7.03009C10.3795 7.07012 10.2254 7.13017 10.0905 7.21024C9.6668 7.49047 8.60746 8.2511 8.12594 9.23191C7.83702 9.85242 7.7022 15.4771 11.747 20.221C15.7532 24.9249 20.7033 25.125 21.4352 24.9649H21.4544L21.5122 24.9449C22.5138 24.5646 23.3613 23.5838 23.6887 23.1634C24.2858 22.4228 23.8813 21.5221 23.6502 21.0216Z" fill="#2C0548"/>
</svg>
