<svg width="92" height="42" viewBox="0 0 92 42" fill="none" xmlns="http://www.w3.org/2000/svg">
<rect width="85" height="38" rx="19" transform="matrix(-1 0 0 1 92 0)" fill="#E3E3E5"/>
<path d="M32.2869 15.8182H33.5653C33.5067 14.1722 31.9886 12.9418 29.8793 12.9418C27.7912 12.9418 26.1506 14.1562 26.1506 15.9886C26.1506 17.4588 27.2159 18.3324 28.9205 18.8224L30.2628 19.206C31.4134 19.5256 32.4361 19.9304 32.4361 21.017C32.4361 22.2102 31.2855 22.9986 29.7727 22.9986C28.473 22.9986 27.3224 22.4233 27.2159 21.1875H25.8523C25.9801 22.9773 27.429 24.1918 29.7727 24.1918C32.2869 24.1918 33.7145 22.8068 33.7145 21.0384C33.7145 18.9929 31.7756 18.3324 30.6463 18.0341L29.5384 17.7358C28.7287 17.5227 27.429 17.0966 27.429 15.9247C27.429 14.8807 28.3878 14.1136 29.8366 14.1136C31.1577 14.1136 32.1591 14.7422 32.2869 15.8182ZM35.716 27.0682H36.9731V22.7429H37.0796C37.3566 23.1903 37.8893 24.1705 39.466 24.1705C41.5115 24.1705 42.939 22.5298 42.939 19.9304C42.939 17.3523 41.5115 15.7116 39.4447 15.7116C37.8467 15.7116 37.3566 16.6918 37.0796 17.1179H36.9305V15.8182H35.716V27.0682ZM36.9518 19.9091C36.9518 18.0767 37.7615 16.8409 39.2955 16.8409C40.8936 16.8409 41.6819 18.1832 41.6819 19.9091C41.6819 21.6562 40.8722 23.0412 39.2955 23.0412C37.7828 23.0412 36.9518 21.7628 36.9518 19.9091ZM48.287 24.1705C49.949 24.1705 51.1634 23.3395 51.547 22.1037L50.3325 21.7628C50.0129 22.6151 49.2725 23.0412 48.287 23.0412C46.8115 23.0412 45.7941 22.0877 45.7355 20.3352H51.6748V19.8026C51.6748 16.7557 49.8637 15.7116 48.1592 15.7116C45.9433 15.7116 44.4731 17.4588 44.4731 19.973C44.4731 22.4872 45.922 24.1705 48.287 24.1705ZM45.7355 19.2486C45.8208 17.9755 46.721 16.8409 48.1592 16.8409C49.5228 16.8409 50.3964 17.8636 50.3964 19.2486H45.7355ZM57.0175 24.1705C58.6794 24.1705 59.8939 23.3395 60.2774 22.1037L59.0629 21.7628C58.7433 22.6151 58.0029 23.0412 57.0175 23.0412C55.542 23.0412 54.5246 22.0877 54.466 20.3352H60.4053V19.8026C60.4053 16.7557 58.5942 15.7116 56.8896 15.7116C54.6737 15.7116 53.2036 17.4588 53.2036 19.973C53.2036 22.4872 54.6524 24.1705 57.0175 24.1705ZM54.466 19.2486C54.5512 17.9755 55.4514 16.8409 56.8896 16.8409C58.2533 16.8409 59.1269 17.8636 59.1269 19.2486H54.466ZM65.407 24.1705C66.9838 24.1705 67.5164 23.1903 67.7934 22.7429H67.9426V24H69.157V13.0909H67.8999V17.1179H67.7934C67.5164 16.6918 67.0264 15.7116 65.4284 15.7116C63.3616 15.7116 61.934 17.3523 61.934 19.9304C61.934 22.5298 63.3616 24.1705 65.407 24.1705ZM65.5775 23.0412C64.0008 23.0412 63.1911 21.6562 63.1911 19.9091C63.1911 18.1832 63.9795 16.8409 65.5775 16.8409C67.1116 16.8409 67.9213 18.0767 67.9213 19.9091C67.9213 21.7628 67.0903 23.0412 65.5775 23.0412ZM72.5502 24.0852C73.0775 24.0852 73.509 23.6538 73.509 23.1264C73.509 22.5991 73.0775 22.1676 72.5502 22.1676C72.0228 22.1676 71.5914 22.5991 71.5914 23.1264C71.5914 23.6538 72.0228 24.0852 72.5502 24.0852Z" fill="#434343"/>
<path d="M9.51351 29.9153C9.51351 26.0169 8.12613 19 8.12613 19L22 35.7627C14.4208 40.2921 9.1136 41.7404 0 42C3.96289 38.837 9.51351 33.8136 9.51351 29.9153Z" fill="#E3E3E5"/>
</svg>
