<svg width="70" height="56" fill="none" xmlns="http://www.w3.org/2000/svg"><path d="M47.353 7v23.059h-4.609v-18.61c-3.77-.808-14.665-1.617-14.665 6.878 0 6.796 7.542 7.686 11.313 7.282v4.45h-5.866c-3.352-.135-10.055-2.67-10.055-11.732S30.174 7 33.526 7h13.827zM11.73 45.23c0 .298.224.52.528.52a.51.51 0 00.529-.52v-2.731c0-1.808-1.468-3.251-3.305-3.251-1.838 0-3.305 1.443-3.305 3.25 0 1.808 1.467 3.251 3.305 3.251.886 0 1.652-.312 2.247-.871v.351zm-2.248-.521c-1.23 0-2.248-1.001-2.248-2.21 0-1.21 1.018-2.211 2.248-2.211 1.23 0 2.247 1.001 2.247 2.21 0 1.21-1.018 2.211-2.247 2.211zm5.821.169c.595.56 1.362.871 2.248.871 1.838 0 3.305-1.443 3.305-3.25 0-1.808-1.467-3.251-3.305-3.251-.886 0-1.653.312-2.247.87v-.35a.51.51 0 00-.53-.52.51.51 0 00-.528.52v8.712c0 .299.225.52.529.52a.51.51 0 00.528-.52v-3.602zm2.248-.169c-1.23 0-2.247-1.001-2.247-2.21 0-1.21 1.018-2.211 2.247-2.211 1.23 0 2.248 1.001 2.248 2.21 0 1.21-1.018 2.211-2.248 2.211zm5.822.169c.595.56 1.361.871 2.247.871 1.838 0 3.305-1.443 3.305-3.25 0-1.808-1.467-3.251-3.305-3.251-.886 0-1.652.312-2.247.87v-.35a.51.51 0 00-.53-.52.51.51 0 00-.528.52v8.712c0 .299.225.52.529.52a.51.51 0 00.529-.52v-3.602zm2.247-.169c-1.23 0-2.247-1.001-2.247-2.21 0-1.21 1.018-2.211 2.247-2.211 1.23 0 2.248 1.001 2.248 2.21 0 1.21-1.018 2.211-2.248 2.211zm8.136 1.041c1.057 0 1.917-.846 1.917-1.886s-.86-1.886-1.917-1.886H32.3a.85.85 0 01-.859-.845.85.85 0 01.86-.845h2.062a.51.51 0 00.529-.52.51.51 0 00-.53-.52H32.3c-1.057 0-1.917.845-1.917 1.885s.86 1.886 1.917 1.886h1.455a.85.85 0 01.859.845.85.85 0 01-.86.845h-2.842a.51.51 0 00-.529.52c0 .3.225.52.53.52h2.842zm4.425-5.462h1.455a.51.51 0 00.529-.52.51.51 0 00-.53-.52h-1.453v-2.08a.51.51 0 00-.53-.52.51.51 0 00-.528.52v6.63c0 1.08.886 1.951 1.983 1.951.542 0 1.044-.22 1.401-.572a.512.512 0 000-.741.542.542 0 00-.74 0 .917.917 0 01-.661.273.912.912 0 01-.925-.91v-3.511zm6.715 5.462c1.838 0 3.305-1.444 3.305-3.252 0-1.807-1.467-3.25-3.305-3.25-1.837 0-3.305 1.443-3.305 3.25 0 1.808 1.468 3.251 3.305 3.251zm0-1.041c-1.23 0-2.247-1.001-2.247-2.21 0-1.21 1.018-2.211 2.247-2.211 1.23 0 2.248 1.001 2.248 2.21 0 1.21-1.018 2.211-2.248 2.211zm10.059 1.041c0 1.209-1.018 2.21-2.248 2.21a2.247 2.247 0 01-1.586-.65.559.559 0 00-.754 0 .536.536 0 000 .74c.595.586 1.428.95 2.34.95 1.838 0 3.306-1.443 3.306-3.25v-5.982a.51.51 0 00-.53-.52.51.51 0 00-.528.52v.35c-.595-.558-1.362-.87-2.248-.87-1.837 0-3.305 1.443-3.305 3.25 0 1.808 1.468 3.251 3.305 3.251.886 0 1.653-.312 2.248-.871v.871zm-2.248-1.041c-1.23 0-2.247-1.001-2.247-2.21 0-1.21 1.018-2.211 2.247-2.211 1.23 0 2.248 1.001 2.248 2.21 0 1.21-1.018 2.211-2.248 2.211zm7.811 1.041c1.838 0 3.306-1.444 3.306-3.252 0-1.807-1.468-3.25-3.306-3.25-1.837 0-3.305 1.443-3.305 3.25 0 1.808 1.468 3.251 3.305 3.251zm0-1.041c-1.23 0-2.247-1.001-2.247-2.21 0-1.21 1.018-2.211 2.247-2.211 1.23 0 2.248 1.001 2.248 2.21 0 1.21-1.018 2.211-2.248 2.211z" fill="#2C0548"/></svg>