<svg width="32" height="32" fill="none" xmlns="http://www.w3.org/2000/svg"><g clip-path="url(#clip0)"><path d="M-16.043 0h64.17v32.085h-64.17V0z" fill="#012169"/><path d="M-16.043 0v3.585l56.996 28.5h7.175v-3.584L-8.867 0h-7.176zm64.17 0v3.585l-56.994 28.5h-7.176v-3.584L40.953 0h7.175z" fill="#fff"/><path d="M10.697 0v32.085h10.691V0h-10.69zm-26.74 10.697v10.691h64.17v-10.69h-64.17z" fill="#fff"/><path d="M-16.043 12.834v6.417h64.17v-6.417h-64.17zM12.834 0v32.085h6.417V0h-6.417zm-28.877 32.085L5.345 21.388h4.788L-11.26 32.085h-4.782zm0-32.085L5.345 10.697H.564l-16.607-8.303V0zm38.001 10.697L43.347 0h4.78L26.74 10.697h-4.782zm26.17 21.388L26.74 21.388h4.781l16.607 8.303v2.394z" fill="#C8102E"/></g><defs><clipPath id="clip0"><path d="M0 8a8 8 0 018-8h16a8 8 0 018 8v16a8 8 0 01-8 8H8a8 8 0 01-8-8V8z" fill="#fff"/></clipPath></defs></svg>