<svg width="32" height="32" fill="none" xmlns="http://www.w3.org/2000/svg"><circle cx="16" cy="16" r="16" fill="#F7F5FF"/><path d="M17.463 16.221a.3.3 0 01.3-.3h1.928a.3.3 0 00.299-.27l.261-2.546a.3.3 0 00-.298-.331h-2.19a.3.3 0 01-.3-.3v-1.55c0-.695.461-.858.785-.858h1.692a.3.3 0 00.3-.3V7.31a.3.3 0 00-.299-.3L17.497 7c-3.044 0-3.737 2.279-3.737 3.737v1.736a.3.3 0 01-.3.3H12.3a.3.3 0 00-.3.3v2.548a.3.3 0 00.3.3h1.16a.3.3 0 01.3.3v8.309a.3.3 0 00.3.3h3.103a.3.3 0 00.3-.3v-8.31z" fill="#2C0548"/></svg>