<svg width="56" height="56" fill="none" xmlns="http://www.w3.org/2000/svg"><g filter="url(#filter0_dd)"><circle cx="28" cy="28" r="16" fill="#F7F5FF"/><path d="M29.463 28.221a.3.3 0 01.3-.3h1.928a.3.3 0 00.299-.27l.261-2.546a.3.3 0 00-.298-.331h-2.19a.3.3 0 01-.3-.3v-1.55c0-.695.461-.858.785-.858h1.692a.3.3 0 00.3-.3V19.31a.3.3 0 00-.299-.3L29.497 19c-3.044 0-3.737 2.279-3.737 3.737v1.736a.3.3 0 01-.3.3H24.3a.3.3 0 00-.3.3v2.548a.3.3 0 00.3.3h1.16a.3.3 0 01.3.3v8.309a.3.3 0 00.3.3h3.103a.3.3 0 00.3-.3v-8.31z" fill="#2C0548"/></g><defs><filter id="filter0_dd" x="0" y="0" width="56" height="56" filterUnits="userSpaceOnUse" color-interpolation-filters="sRGB"><feFlood flood-opacity="0" result="BackgroundImageFix"/><feColorMatrix in="SourceAlpha" values="0 0 0 0 0 0 0 0 0 0 0 0 0 0 0 0 0 0 127 0"/><feOffset/><feGaussianBlur stdDeviation="6"/><feColorMatrix values="0 0 0 0 0.172549 0 0 0 0 0.0196078 0 0 0 0 0.282353 0 0 0 0.2 0"/><feBlend in2="BackgroundImageFix" result="effect1_dropShadow"/><feColorMatrix in="SourceAlpha" values="0 0 0 0 0 0 0 0 0 0 0 0 0 0 0 0 0 0 127 0"/><feOffset/><feGaussianBlur stdDeviation="6"/><feColorMatrix values="0 0 0 0 0.172549 0 0 0 0 0.0196078 0 0 0 0 0.282353 0 0 0 0.3 0"/><feBlend in2="effect1_dropShadow" result="effect2_dropShadow"/><feBlend in="SourceGraphic" in2="effect2_dropShadow" result="shape"/></filter></defs></svg>