<svg width="56" height="56" fill="none" xmlns="http://www.w3.org/2000/svg"><g filter="url(#filter0_d)"><circle cx="28" cy="28" r="16" fill="#F7F5FF"/><path fill-rule="evenodd" clip-rule="evenodd" d="M35.26 36.99l-.06.01H20.8l-.053-.008-.063-.01a1.948 1.948 0 01-1.634-1.486c-.014-.062-.024-.124-.035-.186L19 35.221V20.78l.008-.043.01-.058a1.941 1.941 0 011.67-1.663l.09-.016h14.443l.034.006.066.012a1.948 1.948 0 011.67 1.718l.009.063V35.2l-.011.07a1.949 1.949 0 01-1.508 1.68 4.017 4.017 0 01-.221.04zm-1.79-13.372v.003h-.82c-.337 0-.612-.185-.714-.485a.829.829 0 01-.043-.251c-.003-.47-.003-.939-.002-1.408v-.282a.73.73 0 01.73-.734h1.699c.407 0 .73.325.73.733v1.704a.72.72 0 01-.692.718c-.204.005-.408.004-.612.003l-.278-.001zm-9.118 4.327a3.647 3.647 0 117.293.135 3.655 3.655 0 01-3.73 3.565 3.65 3.65 0 01-3.563-3.7zm-2.091-1.646c.2 0 .344.192.299.387-.32 1.387-.16 2.727.537 4.008a5.468 5.468 0 002.174 2.191 5.594 5.594 0 007.508-1.974 5.615 5.615 0 00.663-4.218.316.316 0 01.3-.394h1.01a.3.3 0 01.3.3v7.737c0 .386-.33.715-.718.715H21.662a.728.728 0 01-.715-.713V26.6a.3.3 0 01.3-.3h1.014z" fill="#2C0548"/></g><defs><filter id="filter0_d" x="0" y="0" width="56" height="56" filterUnits="userSpaceOnUse" color-interpolation-filters="sRGB"><feFlood flood-opacity="0" result="BackgroundImageFix"/><feColorMatrix in="SourceAlpha" values="0 0 0 0 0 0 0 0 0 0 0 0 0 0 0 0 0 0 127 0"/><feOffset/><feGaussianBlur stdDeviation="6"/><feColorMatrix values="0 0 0 0 0.172549 0 0 0 0 0.0196078 0 0 0 0 0.282353 0 0 0 0.2 0"/><feBlend in2="BackgroundImageFix" result="effect1_dropShadow"/><feBlend in="SourceGraphic" in2="effect1_dropShadow" result="shape"/></filter></defs></svg>