<svg width="32" height="32" fill="none" xmlns="http://www.w3.org/2000/svg"><circle cx="16" cy="16" r="16" fill="#F7F5FF"/><path fill-rule="evenodd" clip-rule="evenodd" d="M23.26 24.99l-.06.01H8.8l-.053-.008-.063-.01a1.948 1.948 0 01-1.634-1.486c-.014-.062-.024-.124-.035-.186L7 23.221V8.78l.007-.043.01-.058A1.941 1.941 0 018.52 7.047c.055-.012.112-.022.169-.031L8.778 7h14.443l.034.006a.72.72 0 00.067.012 1.948 1.948 0 011.668 1.718l.01.063V23.2l-.011.07a1.949 1.949 0 01-1.508 1.68 4.017 4.017 0 01-.222.04zm-1.79-13.372v.003h-.82c-.337 0-.612-.185-.714-.485a.829.829 0 01-.043-.251c-.003-.47-.003-.939-.002-1.408v-.282a.73.73 0 01.73-.734h1.699c.407 0 .73.325.73.733v1.704c0 .382-.31.71-.692.719-.204.004-.408.003-.612.002l-.277-.001zm-9.118 4.326a3.647 3.647 0 117.293.136 3.655 3.655 0 01-3.73 3.565 3.65 3.65 0 01-3.563-3.7zm-2.091-1.646c.2 0 .344.193.299.388-.32 1.387-.16 2.727.537 4.008a5.468 5.468 0 002.174 2.191 5.594 5.594 0 007.508-1.974 5.615 5.615 0 00.663-4.218.316.316 0 01.3-.394h1.01a.3.3 0 01.3.3v7.737c0 .386-.33.715-.718.715H9.662a.729.729 0 01-.715-.713V14.6a.3.3 0 01.3-.3h1.014z" fill="#2C0548"/></svg>