<svg width="56" height="56" fill="none" xmlns="http://www.w3.org/2000/svg"><g filter="url(#filter0_d)"><circle cx="28" cy="28" r="16" fill="#F7F5FF"/><path d="M35.2 21H20.8c-.99 0-1.8.788-1.8 1.75v10.5c0 .962.81 1.75 1.8 1.75h14.4c.99 0 1.8-.788 1.8-1.75v-10.5c0-.962-.81-1.75-1.8-1.75zm0 11.35a.9.9 0 11-1.8 0v-6.263a.3.3 0 00-.457-.255l-4.419 2.72a1 1 0 01-1.048 0l-4.419-2.72a.3.3 0 00-.457.255v6.263a.9.9 0 11-1.8 0v-8.754a.846.846 0 011.281-.725l5.404 3.245a1 1 0 001.03 0l5.404-3.245a.845.845 0 011.281.725v8.754z" fill="#2C0548"/></g><defs><filter id="filter0_d" x="0" y="0" width="56" height="56" filterUnits="userSpaceOnUse" color-interpolation-filters="sRGB"><feFlood flood-opacity="0" result="BackgroundImageFix"/><feColorMatrix in="SourceAlpha" values="0 0 0 0 0 0 0 0 0 0 0 0 0 0 0 0 0 0 127 0"/><feOffset/><feGaussianBlur stdDeviation="6"/><feColorMatrix values="0 0 0 0 0.172549 0 0 0 0 0.0196078 0 0 0 0 0.282353 0 0 0 0.2 0"/><feBlend in2="BackgroundImageFix" result="effect1_dropShadow"/><feBlend in="SourceGraphic" in2="effect1_dropShadow" result="shape"/></filter></defs></svg>