<svg width="32" height="32" fill="none" xmlns="http://www.w3.org/2000/svg"><circle cx="16" cy="16" r="16" fill="#F7F5FF"/><path d="M23.2 9H8.8C7.81 9 7 9.788 7 10.75v10.5c0 .962.81 1.75 1.8 1.75h14.4c.99 0 1.8-.788 1.8-1.75v-10.5C25 9.788 24.19 9 23.2 9zm0 11.35a.9.9 0 11-1.8 0v-6.263a.3.3 0 00-.457-.255l-4.419 2.72a1 1 0 01-1.048 0l-4.419-2.72a.3.3 0 00-.457.255v6.263a.9.9 0 11-1.8 0v-8.754a.846.846 0 011.281-.725l5.404 3.245a1 1 0 001.03 0l5.404-3.245a.845.845 0 011.281.725v8.754z" fill="#2C0548"/></svg>