<svg width="32" height="32" fill="none" xmlns="http://www.w3.org/2000/svg"><circle cx="16" cy="16" r="16" fill="#F7F5FF"/><path d="M23.65 21.022l-.096-.2c-.27-.661-3.583-1.662-3.852-1.682l-.212.02c-.405.08-.848.46-1.714 1.241a.508.508 0 01-.617.08c-1.136-.66-2.523-1.981-3.216-2.782-.752-.86-1.657-2.282-2.08-3.423-.077-.22 0-.46.154-.62.982-.921 1.406-1.362 1.444-1.842.02-.28-.558-3.823-1.155-4.163l-.174-.12c-.385-.26-.963-.641-1.598-.5-.155.04-.309.1-.444.18-.423.28-1.483 1.04-1.964 2.02-.289.621-.424 6.246 3.621 10.99 4.006 4.704 8.956 4.904 9.688 4.744h.02l.057-.02c1.002-.38 1.85-1.361 2.177-1.782.597-.74.192-1.64-.039-2.141z" fill="#2C0548"/></svg>