<svg width="92" height="42" fill="none" xmlns="http://www.w3.org/2000/svg"><rect width="85" height="38" rx="19" transform="matrix(-1 0 0 1 92 0)" fill="#E3E3E5"/><path d="M32.287 15.818h1.278c-.058-1.646-1.576-2.876-3.686-2.876-2.088 0-3.728 1.214-3.728 3.047 0 1.47 1.065 2.343 2.77 2.833l1.342.384c1.15.32 2.173.724 2.173 1.811 0 1.193-1.15 1.982-2.663 1.982-1.3 0-2.45-.576-2.557-1.811h-1.364c.128 1.79 1.577 3.004 3.92 3.004 2.515 0 3.943-1.385 3.943-3.154 0-2.045-1.94-2.706-3.069-3.004l-1.108-.298c-.81-.213-2.109-.64-2.109-1.811 0-1.044.959-1.811 2.408-1.811 1.32 0 2.322.628 2.45 1.704zm3.429 11.25h1.257v-4.325h.107c.277.447.81 1.428 2.386 1.428 2.045 0 3.473-1.641 3.473-4.24 0-2.579-1.428-4.22-3.494-4.22-1.598 0-2.088.98-2.365 1.407h-.15v-1.3h-1.214v11.25zm1.236-7.159c0-1.832.81-3.068 2.343-3.068 1.599 0 2.387 1.342 2.387 3.068 0 1.747-.81 3.132-2.387 3.132-1.512 0-2.343-1.278-2.343-3.132zm11.335 4.262c1.662 0 2.876-.831 3.26-2.067l-1.214-.341c-.32.852-1.06 1.278-2.046 1.278-1.475 0-2.493-.953-2.551-2.706h5.939v-.532c0-3.047-1.811-4.091-3.516-4.091-2.216 0-3.686 1.747-3.686 4.261 0 2.514 1.449 4.198 3.814 4.198zm-2.551-4.922c.085-1.273.985-2.408 2.423-2.408 1.364 0 2.237 1.023 2.237 2.408h-4.66zm11.282 4.922c1.661 0 2.876-.831 3.26-2.067l-1.215-.341c-.32.852-1.06 1.278-2.046 1.278-1.475 0-2.492-.953-2.551-2.706h5.94v-.532c0-3.047-1.812-4.091-3.516-4.091-2.216 0-3.686 1.747-3.686 4.261 0 2.514 1.448 4.198 3.813 4.198zm-2.552-4.922c.085-1.273.985-2.408 2.424-2.408 1.363 0 2.237 1.023 2.237 2.408h-4.661zm10.941 4.922c1.577 0 2.11-.98 2.386-1.428h.15V24h1.214V13.09H67.9v4.028h-.107c-.277-.426-.767-1.406-2.365-1.406-2.066 0-3.494 1.64-3.494 4.218 0 2.6 1.428 4.24 3.473 4.24zm.17-1.13c-1.576 0-2.386-1.385-2.386-3.132 0-1.726.788-3.068 2.386-3.068 1.535 0 2.344 1.236 2.344 3.068 0 1.854-.83 3.132-2.344 3.132zm6.973 1.044a.962.962 0 00.959-.959.962.962 0 00-.959-.958.962.962 0 00-.959.958c0 .528.432.96.96.96z" fill="#434343"/><path d="M9.514 29.915C9.514 26.017 8.126 19 8.126 19L22 35.763C14.42 40.293 9.114 41.74 0 42c3.963-3.163 9.514-8.186 9.514-12.085z" fill="#E3E3E5"/></svg>